<svg width="380" height="234" viewBox="0 0 380 234" fill="none" xmlns="http://www.w3.org/2000/svg">
<path d="M75.6519 39.2544V77.04H72.6709C71.7041 69.7891 69.9585 64.0151 67.4341 59.7183C64.9634 55.4214 61.4185 52.0107 56.7993 49.4863C52.1802 46.9619 47.3999 45.6997 42.4585 45.6997C36.8726 45.6997 32.2534 47.4185 28.6011 50.856C24.9487 54.2397 23.1226 58.1069 23.1226 62.4575C23.1226 65.7876 24.2773 68.8223 26.5869 71.5615C29.917 75.5898 37.8394 80.9609 50.354 87.6748C60.5591 93.1533 67.5146 97.3696 71.2207 100.324C74.9805 103.224 77.854 106.662 79.8413 110.636C81.8823 114.611 82.9028 118.773 82.9028 123.124C82.9028 131.396 79.6802 138.539 73.2349 144.555C66.8433 150.517 58.5986 153.498 48.501 153.498C45.332 153.498 42.3511 153.256 39.5581 152.772C37.8931 152.504 34.4287 151.537 29.165 149.872C23.9551 148.153 20.6519 147.294 19.2554 147.294C17.9126 147.294 16.8384 147.697 16.0327 148.502C15.2808 149.308 14.7168 150.973 14.3408 153.498H11.3599V116.034H14.3408C15.7373 123.876 17.6172 129.757 19.9805 133.678C22.3438 137.545 25.9424 140.768 30.7764 143.346C35.6641 145.924 41.0083 147.213 46.8091 147.213C53.5229 147.213 58.8135 145.441 62.6807 141.896C66.6016 138.351 68.562 134.162 68.562 129.328C68.562 126.642 67.8101 123.93 66.3062 121.19C64.856 118.451 62.5732 115.9 59.458 113.537C57.3633 111.925 51.6431 108.515 42.2974 103.305C32.9517 98.041 26.2915 93.8516 22.3169 90.7363C18.396 87.6211 15.415 84.1836 13.374 80.4238C11.333 76.6641 10.3125 72.5283 10.3125 68.0166C10.3125 60.1748 13.3203 53.4341 19.3359 47.7944C25.3516 42.1011 33.0054 39.2544 42.2974 39.2544C48.0981 39.2544 54.248 40.6777 60.7471 43.5244C63.7549 44.8672 65.8765 45.5386 67.1118 45.5386C68.5083 45.5386 69.6362 45.1357 70.4956 44.3301C71.4087 43.4707 72.1338 41.7788 72.6709 39.2544H75.6519Z" fill="white"/>
<path d="M159.766 111.062V113.953C157.005 113.953 154.766 114.448 153.047 115.438C151.328 116.427 149.688 118.276 148.125 120.984C147.083 122.807 145.443 127.156 143.203 134.031L113.672 219.422H110.547L86.4062 151.688L62.4219 219.422H59.6094L28.125 131.453C25.7812 124.891 24.2969 121.01 23.6719 119.812C22.6302 117.833 21.1979 116.375 19.375 115.438C17.6042 114.448 15.1823 113.953 12.1094 113.953V111.062H51.3281V113.953H49.4531C46.6927 113.953 44.5833 114.578 43.125 115.828C41.6667 117.078 40.9375 118.589 40.9375 120.359C40.9375 122.182 42.0833 126.375 44.375 132.938L65.2344 192.391L82.8125 141.844L79.6875 132.938L77.1875 125.828C76.0938 123.224 74.8698 120.932 73.5156 118.953C72.8385 117.964 72.0052 117.13 71.0156 116.453C69.7135 115.516 68.4115 114.839 67.1094 114.422C66.1198 114.109 64.5573 113.953 62.4219 113.953V111.062H103.672V113.953H100.859C97.9427 113.953 95.8073 114.578 94.4531 115.828C93.099 117.078 92.4219 118.771 92.4219 120.906C92.4219 123.562 93.5938 128.198 95.9375 134.812L116.25 192.391L136.406 134.031C138.698 127.573 139.844 123.094 139.844 120.594C139.844 119.396 139.453 118.276 138.672 117.234C137.943 116.193 137.005 115.464 135.859 115.047C133.88 114.318 131.302 113.953 128.125 113.953V111.062H159.766Z" fill="#72A2D6"/>
<path d="M94.3501 214.166C90.9077 216.827 88.7471 218.365 87.8682 218.78C86.5498 219.391 85.146 219.696 83.6567 219.696C81.3374 219.696 79.4209 218.902 77.9072 217.315C76.418 215.729 75.6733 213.641 75.6733 211.053C75.6733 209.417 76.0396 208.001 76.772 206.805C77.7729 205.145 79.5063 203.583 81.9722 202.118C84.4624 200.653 88.5884 198.871 94.3501 196.771V195.453C94.3501 192.108 93.813 189.813 92.7388 188.568C91.689 187.323 90.1509 186.7 88.1245 186.7C86.5864 186.7 85.3657 187.115 84.4624 187.945C83.5347 188.775 83.0708 189.728 83.0708 190.802L83.144 192.926C83.144 194.049 82.8511 194.916 82.2651 195.526C81.7036 196.136 80.959 196.441 80.0312 196.441C79.1279 196.441 78.3833 196.124 77.7974 195.489C77.2358 194.854 76.9551 193.988 76.9551 192.889C76.9551 190.79 78.0293 188.861 80.1777 187.103C82.3262 185.345 85.3413 184.466 89.2231 184.466C92.2017 184.466 94.6431 184.967 96.5474 185.968C97.9878 186.725 99.0498 187.909 99.7334 189.52C100.173 190.57 100.393 192.718 100.393 195.965V207.354C100.393 210.553 100.454 212.518 100.576 213.25C100.698 213.958 100.893 214.435 101.162 214.679C101.455 214.923 101.784 215.045 102.15 215.045C102.541 215.045 102.883 214.959 103.176 214.789C103.688 214.471 104.677 213.58 106.142 212.115V214.166C103.408 217.828 100.795 219.659 98.3052 219.659C97.1089 219.659 96.1567 219.244 95.4487 218.414C94.7407 217.584 94.3745 216.168 94.3501 214.166ZM94.3501 211.786V199.005C90.6636 200.47 88.2832 201.507 87.209 202.118C85.2803 203.192 83.9009 204.315 83.0708 205.487C82.2407 206.659 81.8257 207.94 81.8257 209.332C81.8257 211.09 82.3506 212.555 83.4004 213.727C84.4502 214.874 85.6587 215.448 87.0259 215.448C88.8813 215.448 91.3228 214.227 94.3501 211.786ZM119.983 184.466V192.01C122.791 186.981 125.672 184.466 128.626 184.466C129.969 184.466 131.08 184.881 131.958 185.711C132.837 186.517 133.277 187.457 133.277 188.531C133.277 189.483 132.959 190.289 132.325 190.948C131.69 191.607 130.933 191.937 130.054 191.937C129.2 191.937 128.235 191.522 127.161 190.692C126.111 189.837 125.33 189.41 124.817 189.41C124.378 189.41 123.902 189.654 123.389 190.143C122.291 191.144 121.155 192.792 119.983 195.086V211.163C119.983 213.019 120.215 214.422 120.679 215.375C120.997 216.034 121.558 216.583 122.364 217.022C123.169 217.462 124.329 217.682 125.843 217.682V219H108.667V217.682C110.376 217.682 111.646 217.413 112.476 216.876C113.086 216.485 113.514 215.863 113.758 215.008C113.88 214.593 113.941 213.409 113.941 211.456V198.456C113.941 194.549 113.855 192.23 113.685 191.498C113.538 190.741 113.245 190.191 112.806 189.85C112.391 189.508 111.866 189.337 111.231 189.337C110.474 189.337 109.62 189.52 108.667 189.886L108.301 188.568L118.445 184.466H119.983ZM142.284 198.089C142.26 203.07 143.468 206.976 145.91 209.808C148.351 212.64 151.22 214.056 154.516 214.056C156.713 214.056 158.617 213.458 160.229 212.262C161.864 211.041 163.231 208.966 164.33 206.036L165.465 206.769C164.953 210.113 163.463 213.165 160.998 215.924C158.532 218.658 155.443 220.025 151.732 220.025C147.704 220.025 144.25 218.463 141.369 215.338C138.512 212.188 137.084 207.965 137.084 202.667C137.084 196.93 138.549 192.462 141.479 189.264C144.433 186.041 148.131 184.43 152.575 184.43C156.334 184.43 159.423 185.675 161.84 188.165C164.257 190.631 165.465 193.939 165.465 198.089H142.284ZM142.284 195.965H157.812C157.689 193.817 157.433 192.303 157.042 191.424C156.432 190.057 155.517 188.983 154.296 188.202C153.1 187.42 151.842 187.03 150.524 187.03C148.498 187.03 146.679 187.823 145.067 189.41C143.48 190.973 142.553 193.158 142.284 195.965ZM181.321 166.925V191.461C184.031 188.482 186.179 186.578 187.766 185.748C189.353 184.894 190.94 184.466 192.527 184.466C194.431 184.466 196.067 184.991 197.434 186.041C198.801 187.091 199.814 188.739 200.474 190.985C200.938 192.547 201.169 195.404 201.169 199.554V211.419C201.169 213.543 201.34 214.996 201.682 215.777C201.926 216.363 202.341 216.827 202.927 217.169C203.513 217.511 204.587 217.682 206.15 217.682V219H189.67V217.682H190.439C192.002 217.682 193.088 217.45 193.699 216.986C194.309 216.498 194.736 215.79 194.98 214.862C195.054 214.471 195.09 213.324 195.09 211.419V199.554C195.09 195.892 194.895 193.487 194.504 192.34C194.138 191.192 193.54 190.338 192.71 189.776C191.88 189.19 190.879 188.897 189.707 188.897C188.511 188.897 187.266 189.215 185.972 189.85C184.678 190.484 183.127 191.766 181.321 193.695V211.419C181.321 213.714 181.443 215.143 181.687 215.704C181.956 216.266 182.432 216.742 183.115 217.132C183.823 217.499 185.032 217.682 186.741 217.682V219H170.115V217.682C171.604 217.682 172.776 217.45 173.63 216.986C174.119 216.742 174.509 216.278 174.802 215.594C175.095 214.911 175.242 213.519 175.242 211.419V181.061C175.242 177.228 175.144 174.872 174.949 173.993C174.778 173.114 174.497 172.516 174.106 172.198C173.74 171.881 173.24 171.722 172.605 171.722C172.092 171.722 171.262 171.917 170.115 172.308L169.602 171.026L179.636 166.925H181.321ZM226.876 184.466C231.954 184.466 236.031 186.395 239.107 190.252C241.72 193.548 243.026 197.333 243.026 201.605C243.026 204.608 242.306 207.647 240.865 210.724C239.425 213.8 237.435 216.119 234.896 217.682C232.381 219.244 229.574 220.025 226.473 220.025C221.419 220.025 217.403 218.011 214.425 213.983C211.91 210.589 210.653 206.781 210.653 202.557C210.653 199.481 211.41 196.429 212.923 193.402C214.461 190.35 216.476 188.104 218.966 186.664C221.456 185.199 224.093 184.466 226.876 184.466ZM225.741 186.847C224.447 186.847 223.141 187.237 221.822 188.019C220.528 188.775 219.479 190.118 218.673 192.047C217.867 193.976 217.464 196.454 217.464 199.481C217.464 204.364 218.429 208.575 220.357 212.115C222.311 215.655 224.874 217.425 228.048 217.425C230.416 217.425 232.369 216.449 233.907 214.496C235.445 212.542 236.214 209.186 236.214 204.425C236.214 198.468 234.933 193.78 232.369 190.362C230.636 188.019 228.426 186.847 225.741 186.847ZM278.876 185.455V205.78C278.876 209.662 278.962 212.042 279.133 212.921C279.328 213.775 279.621 214.374 280.012 214.715C280.427 215.057 280.903 215.228 281.44 215.228C282.197 215.228 283.051 215.021 284.003 214.605L284.516 215.887L274.482 220.025H272.834V212.921C269.953 216.046 267.756 218.011 266.242 218.817C264.729 219.623 263.129 220.025 261.445 220.025C259.565 220.025 257.929 219.488 256.538 218.414C255.17 217.315 254.218 215.912 253.681 214.203C253.144 212.494 252.875 210.077 252.875 206.952V191.974C252.875 190.387 252.705 189.288 252.363 188.678C252.021 188.067 251.508 187.604 250.825 187.286C250.166 186.944 248.957 186.786 247.199 186.81V185.455H258.955V207.904C258.955 211.029 259.492 213.08 260.566 214.056C261.665 215.033 262.983 215.521 264.521 215.521C265.571 215.521 266.755 215.191 268.073 214.532C269.416 213.873 271.003 212.616 272.834 210.76V191.754C272.834 189.85 272.48 188.568 271.772 187.909C271.088 187.225 269.648 186.859 267.451 186.81V185.455H278.876ZM310.149 184.466V195.892H308.941C308.013 192.303 306.817 189.862 305.352 188.568C303.912 187.274 302.068 186.627 299.822 186.627C298.113 186.627 296.734 187.079 295.684 187.982C294.634 188.885 294.109 189.886 294.109 190.985C294.109 192.352 294.5 193.524 295.281 194.5C296.038 195.501 297.576 196.563 299.896 197.687L305.242 200.287C310.198 202.704 312.676 205.89 312.676 209.845C312.676 212.896 311.517 215.362 309.197 217.242C306.902 219.098 304.327 220.025 301.47 220.025C299.419 220.025 297.076 219.659 294.439 218.927C293.633 218.683 292.974 218.561 292.461 218.561C291.9 218.561 291.46 218.878 291.143 219.513H289.935V207.538H291.143C291.827 210.956 293.133 213.531 295.062 215.265C296.99 216.998 299.151 217.865 301.543 217.865C303.228 217.865 304.595 217.376 305.645 216.4C306.719 215.399 307.256 214.203 307.256 212.811C307.256 211.126 306.658 209.71 305.462 208.563C304.29 207.416 301.934 205.963 298.394 204.205C294.854 202.447 292.535 200.86 291.436 199.444C290.337 198.053 289.788 196.295 289.788 194.171C289.788 191.412 290.728 189.105 292.608 187.25C294.512 185.394 296.966 184.466 299.969 184.466C301.287 184.466 302.886 184.747 304.766 185.309C306.011 185.675 306.841 185.858 307.256 185.858C307.647 185.858 307.952 185.772 308.172 185.602C308.392 185.431 308.648 185.052 308.941 184.466H310.149ZM324.833 198.089C324.809 203.07 326.017 206.976 328.458 209.808C330.9 212.64 333.769 214.056 337.064 214.056C339.262 214.056 341.166 213.458 342.777 212.262C344.413 211.041 345.78 208.966 346.879 206.036L348.014 206.769C347.501 210.113 346.012 213.165 343.546 215.924C341.081 218.658 337.992 220.025 334.281 220.025C330.253 220.025 326.798 218.463 323.917 215.338C321.061 212.188 319.633 207.965 319.633 202.667C319.633 196.93 321.098 192.462 324.027 189.264C326.981 186.041 330.68 184.43 335.124 184.43C338.883 184.43 341.972 185.675 344.389 188.165C346.806 190.631 348.014 193.939 348.014 198.089H324.833ZM324.833 195.965H340.36C340.238 193.817 339.982 192.303 339.591 191.424C338.981 190.057 338.065 188.983 336.845 188.202C335.648 187.42 334.391 187.03 333.073 187.03C331.046 187.03 329.228 187.823 327.616 189.41C326.029 190.973 325.102 193.158 324.833 195.965Z" fill="white"/>
<path d="M94.75 70.4663C99.8281 70.4663 103.905 72.395 106.981 76.2524C109.594 79.5483 110.9 83.3325 110.9 87.605C110.9 90.6079 110.18 93.6475 108.739 96.7236C107.299 99.7998 105.309 102.119 102.77 103.682C100.255 105.244 97.4478 106.025 94.3472 106.025C89.2935 106.025 85.2773 104.011 82.2988 99.9829C79.7842 96.5894 78.5269 92.7808 78.5269 88.5571C78.5269 85.481 79.2837 82.4292 80.7974 79.4019C82.3354 76.3501 84.3496 74.104 86.8398 72.6636C89.3301 71.1987 91.9668 70.4663 94.75 70.4663ZM93.6147 72.8467C92.3208 72.8467 91.0146 73.2373 89.6963 74.0186C88.4023 74.7754 87.3525 76.1182 86.5469 78.0469C85.7412 79.9756 85.3384 82.4536 85.3384 85.481C85.3384 90.3638 86.3027 94.5752 88.2314 98.1152C90.1846 101.655 92.748 103.425 95.9219 103.425C98.29 103.425 100.243 102.449 101.781 100.496C103.319 98.5425 104.088 95.1855 104.088 90.4248C104.088 84.4678 102.807 79.7803 100.243 76.3623C98.5098 74.0186 96.3003 72.8467 93.6147 72.8467ZM130.454 74.0918V96.1377C130.454 99.2627 130.796 101.24 131.479 102.07C132.383 103.145 133.591 103.682 135.105 103.682H138.145V105H118.113V103.682H119.614C120.591 103.682 121.482 103.438 122.288 102.949C123.093 102.461 123.643 101.802 123.936 100.972C124.253 100.142 124.412 98.5303 124.412 96.1377V74.0918H117.893V71.4551H124.412V69.2578C124.412 65.9131 124.949 63.0811 126.023 60.7617C127.097 58.4424 128.733 56.5747 130.93 55.1587C133.152 53.7183 135.642 52.998 138.401 52.998C140.964 52.998 143.32 53.8281 145.469 55.4883C146.885 56.5869 147.593 57.8198 147.593 59.187C147.593 59.9194 147.275 60.6152 146.641 61.2744C146.006 61.9092 145.322 62.2266 144.59 62.2266C144.028 62.2266 143.43 62.0312 142.795 61.6406C142.185 61.2256 141.428 60.3589 140.525 59.0405C139.622 57.6978 138.792 56.7944 138.035 56.3306C137.278 55.8667 136.436 55.6348 135.508 55.6348C134.385 55.6348 133.433 55.9399 132.651 56.5503C131.87 57.1362 131.309 58.064 130.967 59.3335C130.625 60.5786 130.454 63.8135 130.454 69.0381V71.4551H139.097V74.0918H130.454ZM153.561 60.4321V71.4551H161.397V74.0186H153.561V95.7715C153.561 97.9443 153.866 99.4092 154.476 100.166C155.111 100.923 155.917 101.301 156.893 101.301C157.699 101.301 158.48 101.057 159.237 100.569C159.994 100.056 160.58 99.3115 160.995 98.335H162.423C161.568 100.728 160.36 102.534 158.797 103.755C157.235 104.951 155.624 105.549 153.963 105.549C152.84 105.549 151.742 105.244 150.667 104.634C149.593 103.999 148.8 103.108 148.287 101.96C147.774 100.789 147.518 98.9941 147.518 96.5771V74.0186H142.208V72.8101C143.551 72.2729 144.918 71.3696 146.31 70.1001C147.726 68.8062 148.983 67.2803 150.082 65.5225C150.643 64.5947 151.424 62.8979 152.425 60.4321H153.561Z" fill="white"/>
</svg>
