<svg width="496" height="156" viewBox="0 0 496 156" fill="none" xmlns="http://www.w3.org/2000/svg">
<path d="M75.6519 37.2544V75.04H72.6709C71.7041 67.7891 69.9585 62.0151 67.4341 57.7183C64.9634 53.4214 61.4185 50.0107 56.7993 47.4863C52.1802 44.9619 47.3999 43.6997 42.4585 43.6997C36.8726 43.6997 32.2534 45.4185 28.6011 48.856C24.9487 52.2397 23.1226 56.1069 23.1226 60.4575C23.1226 63.7876 24.2773 66.8223 26.5869 69.5615C29.917 73.5898 37.8394 78.9609 50.354 85.6748C60.5591 91.1533 67.5146 95.3696 71.2207 98.3237C74.9805 101.224 77.854 104.662 79.8413 108.636C81.8823 112.611 82.9028 116.773 82.9028 121.124C82.9028 129.396 79.6802 136.539 73.2349 142.555C66.8433 148.517 58.5986 151.498 48.501 151.498C45.332 151.498 42.3511 151.256 39.5581 150.772C37.8931 150.504 34.4287 149.537 29.165 147.872C23.9551 146.153 20.6519 145.294 19.2554 145.294C17.9126 145.294 16.8384 145.697 16.0327 146.502C15.2808 147.308 14.7168 148.973 14.3408 151.498H11.3599V114.034H14.3408C15.7373 121.876 17.6172 127.757 19.9805 131.678C22.3438 135.545 25.9424 138.768 30.7764 141.346C35.6641 143.924 41.0083 145.213 46.8091 145.213C53.5229 145.213 58.8135 143.441 62.6807 139.896C66.6016 136.351 68.562 132.162 68.562 127.328C68.562 124.642 67.8101 121.93 66.3062 119.19C64.856 116.451 62.5732 113.9 59.458 111.537C57.3633 109.925 51.6431 106.515 42.2974 101.305C32.9517 96.041 26.2915 91.8516 22.3169 88.7363C18.396 85.6211 15.415 82.1836 13.374 78.4238C11.333 74.6641 10.3125 70.5283 10.3125 66.0166C10.3125 58.1748 13.3203 51.4341 19.3359 45.7944C25.3516 40.1011 33.0054 37.2544 42.2974 37.2544C48.0981 37.2544 54.248 38.6777 60.7471 41.5244C63.7549 42.8672 65.8765 43.5386 67.1118 43.5386C68.5083 43.5386 69.6362 43.1357 70.4956 42.3301C71.4087 41.4707 72.1338 39.7788 72.6709 37.2544H75.6519Z" fill="#262262"/>
<path d="M307.766 40.0625V42.9531C305.005 42.9531 302.766 43.4479 301.047 44.4375C299.328 45.4271 297.688 47.276 296.125 49.9844C295.083 51.8073 293.443 56.1562 291.203 63.0312L261.672 148.422H258.547L234.406 80.6875L210.422 148.422H207.609L176.125 60.4531C173.781 53.8906 172.297 50.0104 171.672 48.8125C170.63 46.8333 169.198 45.375 167.375 44.4375C165.604 43.4479 163.182 42.9531 160.109 42.9531V40.0625H199.328V42.9531H197.453C194.693 42.9531 192.583 43.5781 191.125 44.8281C189.667 46.0781 188.938 47.5885 188.938 49.3594C188.938 51.1823 190.083 55.375 192.375 61.9375L213.234 121.391L230.812 70.8438L227.688 61.9375L225.188 54.8281C224.094 52.224 222.87 49.9323 221.516 47.9531C220.839 46.9635 220.005 46.1302 219.016 45.4531C217.714 44.5156 216.411 43.8385 215.109 43.4219C214.12 43.1094 212.557 42.9531 210.422 42.9531V40.0625H251.672V42.9531H248.859C245.943 42.9531 243.807 43.5781 242.453 44.8281C241.099 46.0781 240.422 47.7708 240.422 49.9062C240.422 52.5625 241.594 57.1979 243.938 63.8125L264.25 121.391L284.406 63.0312C286.698 56.5729 287.844 52.0938 287.844 49.5938C287.844 48.3958 287.453 47.276 286.672 46.2344C285.943 45.1927 285.005 44.4635 283.859 44.0469C281.88 43.3177 279.302 42.9531 276.125 42.9531V40.0625H307.766Z" fill="#72A2D6"/>
<path d="M239.35 143.166C235.908 145.827 233.747 147.365 232.868 147.78C231.55 148.391 230.146 148.696 228.657 148.696C226.337 148.696 224.421 147.902 222.907 146.315C221.418 144.729 220.673 142.641 220.673 140.053C220.673 138.417 221.04 137.001 221.772 135.805C222.773 134.145 224.506 132.583 226.972 131.118C229.462 129.653 233.588 127.871 239.35 125.771V124.453C239.35 121.108 238.813 118.813 237.739 117.568C236.689 116.323 235.151 115.7 233.125 115.7C231.586 115.7 230.366 116.115 229.462 116.945C228.535 117.775 228.071 118.728 228.071 119.802L228.144 121.926C228.144 123.049 227.851 123.916 227.265 124.526C226.704 125.136 225.959 125.441 225.031 125.441C224.128 125.441 223.383 125.124 222.797 124.489C222.236 123.854 221.955 122.988 221.955 121.889C221.955 119.79 223.029 117.861 225.178 116.103C227.326 114.345 230.341 113.466 234.223 113.466C237.202 113.466 239.643 113.967 241.547 114.968C242.988 115.725 244.05 116.909 244.733 118.52C245.173 119.57 245.393 121.718 245.393 124.965V136.354C245.393 139.553 245.454 141.518 245.576 142.25C245.698 142.958 245.893 143.435 246.162 143.679C246.455 143.923 246.784 144.045 247.15 144.045C247.541 144.045 247.883 143.959 248.176 143.789C248.688 143.471 249.677 142.58 251.142 141.115V143.166C248.408 146.828 245.795 148.659 243.305 148.659C242.109 148.659 241.157 148.244 240.449 147.414C239.741 146.584 239.375 145.168 239.35 143.166ZM239.35 140.786V128.005C235.664 129.47 233.283 130.507 232.209 131.118C230.28 132.192 228.901 133.315 228.071 134.487C227.241 135.659 226.826 136.94 226.826 138.332C226.826 140.09 227.351 141.555 228.4 142.727C229.45 143.874 230.659 144.448 232.026 144.448C233.881 144.448 236.323 143.227 239.35 140.786ZM264.983 113.466V121.01C267.791 115.981 270.672 113.466 273.626 113.466C274.969 113.466 276.08 113.881 276.958 114.711C277.837 115.517 278.277 116.457 278.277 117.531C278.277 118.483 277.959 119.289 277.325 119.948C276.69 120.607 275.933 120.937 275.054 120.937C274.2 120.937 273.235 120.522 272.161 119.692C271.111 118.837 270.33 118.41 269.817 118.41C269.378 118.41 268.902 118.654 268.389 119.143C267.291 120.144 266.155 121.792 264.983 124.086V140.163C264.983 142.019 265.215 143.422 265.679 144.375C265.997 145.034 266.558 145.583 267.364 146.022C268.169 146.462 269.329 146.682 270.843 146.682V148H253.667V146.682C255.376 146.682 256.646 146.413 257.476 145.876C258.086 145.485 258.514 144.863 258.758 144.008C258.88 143.593 258.941 142.409 258.941 140.456V127.456C258.941 123.549 258.855 121.23 258.685 120.498C258.538 119.741 258.245 119.191 257.806 118.85C257.391 118.508 256.866 118.337 256.231 118.337C255.474 118.337 254.62 118.52 253.667 118.886L253.301 117.568L263.445 113.466H264.983ZM287.284 127.089C287.26 132.07 288.468 135.976 290.91 138.808C293.351 141.64 296.22 143.056 299.516 143.056C301.713 143.056 303.617 142.458 305.229 141.262C306.864 140.041 308.231 137.966 309.33 135.036L310.465 135.769C309.953 139.113 308.463 142.165 305.998 144.924C303.532 147.658 300.443 149.025 296.732 149.025C292.704 149.025 289.25 147.463 286.369 144.338C283.512 141.188 282.084 136.965 282.084 131.667C282.084 125.93 283.549 121.462 286.479 118.264C289.433 115.041 293.131 113.43 297.575 113.43C301.334 113.43 304.423 114.675 306.84 117.165C309.257 119.631 310.465 122.939 310.465 127.089H287.284ZM287.284 124.965H302.812C302.689 122.817 302.433 121.303 302.042 120.424C301.432 119.057 300.517 117.983 299.296 117.202C298.1 116.42 296.842 116.03 295.524 116.03C293.498 116.03 291.679 116.823 290.067 118.41C288.48 119.973 287.553 122.158 287.284 124.965ZM326.321 95.9248V120.461C329.031 117.482 331.179 115.578 332.766 114.748C334.353 113.894 335.94 113.466 337.527 113.466C339.431 113.466 341.067 113.991 342.434 115.041C343.801 116.091 344.814 117.739 345.474 119.985C345.938 121.547 346.169 124.404 346.169 128.554V140.419C346.169 142.543 346.34 143.996 346.682 144.777C346.926 145.363 347.341 145.827 347.927 146.169C348.513 146.511 349.587 146.682 351.15 146.682V148H334.67V146.682H335.439C337.002 146.682 338.088 146.45 338.699 145.986C339.309 145.498 339.736 144.79 339.98 143.862C340.054 143.471 340.09 142.324 340.09 140.419V128.554C340.09 124.892 339.895 122.487 339.504 121.34C339.138 120.192 338.54 119.338 337.71 118.776C336.88 118.19 335.879 117.897 334.707 117.897C333.511 117.897 332.266 118.215 330.972 118.85C329.678 119.484 328.127 120.766 326.321 122.695V140.419C326.321 142.714 326.443 144.143 326.687 144.704C326.956 145.266 327.432 145.742 328.115 146.132C328.823 146.499 330.032 146.682 331.741 146.682V148H315.115V146.682C316.604 146.682 317.776 146.45 318.63 145.986C319.119 145.742 319.509 145.278 319.802 144.594C320.095 143.911 320.242 142.519 320.242 140.419V110.061C320.242 106.228 320.144 103.872 319.949 102.993C319.778 102.114 319.497 101.516 319.106 101.198C318.74 100.881 318.24 100.722 317.605 100.722C317.092 100.722 316.262 100.917 315.115 101.308L314.602 100.026L324.636 95.9248H326.321ZM371.876 113.466C376.954 113.466 381.031 115.395 384.107 119.252C386.72 122.548 388.026 126.333 388.026 130.605C388.026 133.608 387.306 136.647 385.865 139.724C384.425 142.8 382.435 145.119 379.896 146.682C377.381 148.244 374.574 149.025 371.473 149.025C366.419 149.025 362.403 147.011 359.425 142.983C356.91 139.589 355.653 135.781 355.653 131.557C355.653 128.481 356.41 125.429 357.923 122.402C359.461 119.35 361.476 117.104 363.966 115.664C366.456 114.199 369.093 113.466 371.876 113.466ZM370.741 115.847C369.447 115.847 368.141 116.237 366.822 117.019C365.528 117.775 364.479 119.118 363.673 121.047C362.867 122.976 362.464 125.454 362.464 128.481C362.464 133.364 363.429 137.575 365.357 141.115C367.311 144.655 369.874 146.425 373.048 146.425C375.416 146.425 377.369 145.449 378.907 143.496C380.445 141.542 381.214 138.186 381.214 133.425C381.214 127.468 379.933 122.78 377.369 119.362C375.636 117.019 373.426 115.847 370.741 115.847ZM423.876 114.455V134.78C423.876 138.662 423.962 141.042 424.133 141.921C424.328 142.775 424.621 143.374 425.012 143.715C425.427 144.057 425.903 144.228 426.44 144.228C427.197 144.228 428.051 144.021 429.003 143.605L429.516 144.887L419.482 149.025H417.834V141.921C414.953 145.046 412.756 147.011 411.242 147.817C409.729 148.623 408.129 149.025 406.445 149.025C404.565 149.025 402.929 148.488 401.538 147.414C400.17 146.315 399.218 144.912 398.681 143.203C398.144 141.494 397.875 139.077 397.875 135.952V120.974C397.875 119.387 397.705 118.288 397.363 117.678C397.021 117.067 396.508 116.604 395.825 116.286C395.166 115.944 393.957 115.786 392.199 115.81V114.455H403.955V136.904C403.955 140.029 404.492 142.08 405.566 143.056C406.665 144.033 407.983 144.521 409.521 144.521C410.571 144.521 411.755 144.191 413.073 143.532C414.416 142.873 416.003 141.616 417.834 139.76V120.754C417.834 118.85 417.48 117.568 416.772 116.909C416.088 116.225 414.648 115.859 412.451 115.81V114.455H423.876ZM455.149 113.466V124.892H453.941C453.013 121.303 451.817 118.862 450.352 117.568C448.912 116.274 447.068 115.627 444.822 115.627C443.113 115.627 441.734 116.079 440.684 116.982C439.634 117.885 439.109 118.886 439.109 119.985C439.109 121.352 439.5 122.524 440.281 123.5C441.038 124.501 442.576 125.563 444.896 126.687L450.242 129.287C455.198 131.704 457.676 134.89 457.676 138.845C457.676 141.896 456.517 144.362 454.197 146.242C451.902 148.098 449.327 149.025 446.47 149.025C444.419 149.025 442.076 148.659 439.439 147.927C438.633 147.683 437.974 147.561 437.461 147.561C436.9 147.561 436.46 147.878 436.143 148.513H434.935V136.538H436.143C436.827 139.956 438.133 142.531 440.062 144.265C441.99 145.998 444.151 146.865 446.543 146.865C448.228 146.865 449.595 146.376 450.645 145.4C451.719 144.399 452.256 143.203 452.256 141.811C452.256 140.126 451.658 138.71 450.462 137.563C449.29 136.416 446.934 134.963 443.394 133.205C439.854 131.447 437.535 129.86 436.436 128.444C435.337 127.053 434.788 125.295 434.788 123.171C434.788 120.412 435.728 118.105 437.608 116.25C439.512 114.394 441.966 113.466 444.969 113.466C446.287 113.466 447.886 113.747 449.766 114.309C451.011 114.675 451.841 114.858 452.256 114.858C452.647 114.858 452.952 114.772 453.172 114.602C453.392 114.431 453.648 114.052 453.941 113.466H455.149ZM469.833 127.089C469.809 132.07 471.017 135.976 473.458 138.808C475.9 141.64 478.769 143.056 482.064 143.056C484.262 143.056 486.166 142.458 487.777 141.262C489.413 140.041 490.78 137.966 491.879 135.036L493.014 135.769C492.501 139.113 491.012 142.165 488.546 144.924C486.081 147.658 482.992 149.025 479.281 149.025C475.253 149.025 471.798 147.463 468.917 144.338C466.061 141.188 464.633 136.965 464.633 131.667C464.633 125.93 466.098 121.462 469.027 118.264C471.981 115.041 475.68 113.43 480.124 113.43C483.883 113.43 486.972 114.675 489.389 117.165C491.806 119.631 493.014 122.939 493.014 127.089H469.833ZM469.833 124.965H485.36C485.238 122.817 484.982 121.303 484.591 120.424C483.981 119.057 483.065 117.983 481.845 117.202C480.648 116.42 479.391 116.03 478.073 116.03C476.046 116.03 474.228 116.823 472.616 118.41C471.029 119.973 470.102 122.158 469.833 124.965Z" fill="#262262"/>
<path d="M94.75 68.4663C99.8281 68.4663 103.905 70.395 106.981 74.2524C109.594 77.5483 110.9 81.3325 110.9 85.605C110.9 88.6079 110.18 91.6475 108.739 94.7236C107.299 97.7998 105.309 100.119 102.77 101.682C100.255 103.244 97.4478 104.025 94.3472 104.025C89.2935 104.025 85.2773 102.011 82.2988 97.9829C79.7842 94.5894 78.5269 90.7808 78.5269 86.5571C78.5269 83.481 79.2837 80.4292 80.7974 77.4019C82.3354 74.3501 84.3496 72.104 86.8398 70.6636C89.3301 69.1987 91.9668 68.4663 94.75 68.4663ZM93.6147 70.8467C92.3208 70.8467 91.0146 71.2373 89.6963 72.0186C88.4023 72.7754 87.3525 74.1182 86.5469 76.0469C85.7412 77.9756 85.3384 80.4536 85.3384 83.481C85.3384 88.3638 86.3027 92.5752 88.2314 96.1152C90.1846 99.6553 92.748 101.425 95.9219 101.425C98.29 101.425 100.243 100.449 101.781 98.4956C103.319 96.5425 104.088 93.1855 104.088 88.4248C104.088 82.4678 102.807 77.7803 100.243 74.3623C98.5098 72.0186 96.3003 70.8467 93.6147 70.8467ZM130.454 72.0918V94.1377C130.454 97.2627 130.796 99.2402 131.479 100.07C132.383 101.145 133.591 101.682 135.105 101.682H138.145V103H118.113V101.682H119.614C120.591 101.682 121.482 101.438 122.288 100.949C123.093 100.461 123.643 99.8018 123.936 98.9717C124.253 98.1416 124.412 96.5303 124.412 94.1377V72.0918H117.893V69.4551H124.412V67.2578C124.412 63.9131 124.949 61.0811 126.023 58.7617C127.097 56.4424 128.733 54.5747 130.93 53.1587C133.152 51.7183 135.642 50.998 138.401 50.998C140.964 50.998 143.32 51.8281 145.469 53.4883C146.885 54.5869 147.593 55.8198 147.593 57.187C147.593 57.9194 147.275 58.6152 146.641 59.2744C146.006 59.9092 145.322 60.2266 144.59 60.2266C144.028 60.2266 143.43 60.0312 142.795 59.6406C142.185 59.2256 141.428 58.3589 140.525 57.0405C139.622 55.6978 138.792 54.7944 138.035 54.3306C137.278 53.8667 136.436 53.6348 135.508 53.6348C134.385 53.6348 133.433 53.9399 132.651 54.5503C131.87 55.1362 131.309 56.064 130.967 57.3335C130.625 58.5786 130.454 61.8135 130.454 67.0381V69.4551H139.097V72.0918H130.454ZM153.561 58.4321V69.4551H161.397V72.0186H153.561V93.7715C153.561 95.9443 153.866 97.4092 154.476 98.166C155.111 98.9229 155.917 99.3013 156.893 99.3013C157.699 99.3013 158.48 99.0571 159.237 98.5688C159.994 98.0562 160.58 97.3115 160.995 96.335H162.423C161.568 98.7275 160.36 100.534 158.797 101.755C157.235 102.951 155.624 103.549 153.963 103.549C152.84 103.549 151.742 103.244 150.667 102.634C149.593 101.999 148.8 101.108 148.287 99.9604C147.774 98.7886 147.518 96.9941 147.518 94.5771V72.0186H142.208V70.8101C143.551 70.2729 144.918 69.3696 146.31 68.1001C147.726 66.8062 148.983 65.2803 150.082 63.5225C150.643 62.5947 151.424 60.8979 152.425 58.4321H153.561Z" fill="#262262"/>
</svg>
